<?xml version="1.0" standalone="no"?><!DOCTYPE svg PUBLIC "-//W3C//DTD SVG 1.1//EN"
  "http://www.w3.org/Graphics/SVG/1.1/DTD/svg11.dtd">
<svg t="1709123091131" class="icon" viewBox="0 0 1024 1024" version="1.1" xmlns="http://www.w3.org/2000/svg" p-id="9179"
     width="200" height="200">
  <path
    d="M282.624 437.248c4.608 12.288 13.312 21.504 25.088 27.136 0 0 4.096 2.56 8.192 3.072 0.512 0 1.024 0.512 1.536 1.024 0 0 0.512 0.512 0.512 1.024 1.024 70.656 76.8 203.264 194.56 203.264 118.272 0 193.536-132.608 194.56-203.264 0-0.512 0-1.024 0.512-1.024 0.512-0.512 1.024-0.512 1.536-0.512 4.096-1.024 8.192-3.072 8.192-3.072 11.264-5.632 19.968-14.848 24.576-27.136 7.168-17.92 12.288-59.392 13.312-72.704 4.096-44.544 1.024-68.096-11.264-81.408l-5.632-5.632v-8.192c0-10.24 0.512-19.456 0.512-28.16 2.048-66.048 3.584-123.392-65.024-159.744l-6.144-3.584-2.56-6.656c-13.824-33.792-58.88-71.68-169.472-71.68-89.088 0-145.92 39.424-163.84 58.88-50.688 54.272-48.64 129.024-46.592 195.584l0.512 23.552-5.632 6.144c-11.776 13.312-15.36 37.376-11.264 81.408 1.536 9.728 6.656 52.736 13.824 71.68z m18.944-126.464c1.024-4.096 5.632-12.8 12.8-12.288 10.24 0.512 17.92 26.112 20.48 32.768 1.536 4.096 5.632 2.048 5.12-0.512 0 0-6.656-96.768-1.024-117.76 5.632-23.552 9.728-34.304 28.16-52.736 15.36-17.92 44.544-24.064 64.512-14.336l36.352 17.92c23.04 13.824 60.416 13.824 83.456 0 0 0 15.872-8.192 35.328-17.92 19.456-10.24 48.64-3.584 65.536 14.336 0 0 18.432 17.92 30.208 52.736 10.24 28.672 2.048 117.76 2.048 117.76-0.512 2.56 3.072 4.608 5.12 0.512 3.072-6.656 10.24-31.744 20.48-32.768 7.168-0.512 11.264 8.192 12.8 12.288 2.048 7.168 3.584 21.504 0.512 50.688-2.56 25.6-7.68 54.272-11.264 64-2.048 6.144-6.656 9.728-12.8 11.776-17.92 5.12-21.504 16.896-22.528 23.04 0 1.024-0.512 3.072-0.512 4.608-0.512 2.56-0.512 5.632-0.512 9.216-2.048 57.344-70.656 167.424-163.328 167.424-92.672 0-160.768-110.08-163.328-170.496 0-3.584-0.512-6.656-1.024-9.728-0.512-5.12-2.048-13.312-4.096-20.48 3.072 12.8-0.512 1.536-18.432-3.584-6.144-1.536-10.752-5.632-12.8-11.776-3.584-9.728-8.704-38.4-11.264-64-3.584-29.184-2.048-43.52 0-50.688z"
    p-id="9180"></path>
  <path
    d="M1024 1024c-13.824-83.968-51.2-280.576-101.888-309.76-35.84-23.04-124.928-18.432-220.672-79.872-0.512 0-1.024-0.512-1.024-0.512-9.728-7.168-25.088-9.216-24.064 4.608 4.608 34.304-34.304 153.088-85.504 264.192-12.8-45.056-37.376-108.032-41.984-119.296-1.024-2.048-0.512-5.12 1.024-7.168 7.168-8.192 25.088-31.232 28.16-43.008 3.584-15.36-4.096-25.6-16.384-35.328-5.12-4.096-13.312-5.632-18.944-2.56l-20.48 9.216c-5.632 3.072-14.848 3.072-20.992 0l-20.48-9.216c-5.632-3.072-13.824-1.024-18.944 2.56-12.288 9.728-19.968 19.968-16.384 35.328 3.072 11.776 20.992 34.304 28.16 43.008 1.536 1.536 2.048 5.12 1.024 7.168-4.608 10.752-28.672 74.24-41.472 118.784-51.2-111.104-90.112-229.376-85.504-264.192 1.024-13.824-14.336-12.288-24.064-4.608 0 0-0.512 0.512-1.024 0.512-95.232 61.44-184.832 56.832-220.672 79.872C52.736 742.4 14.848 936.448 0 1024h1024zM424.96 445.44c39.424 0 71.168-32.256 71.168-71.68 0-3.072 0-6.656-0.512-9.728 5.12-1.024 10.752-1.536 16.384-1.536s11.264 0.512 16.896 1.536c-0.512 3.072-0.512 6.144-0.512 9.728 0 39.424 31.744 71.168 71.168 71.168s71.168-32.256 71.168-71.68-31.744-71.68-71.168-71.68c-27.136 0-50.688 15.36-62.464 37.888-7.168-2.048-15.872-3.072-24.576-3.072-8.192 0-16.384 1.024-24.064 2.56-12.288-22.528-35.84-37.888-62.464-37.888-39.424 0-71.168 32.256-71.168 71.68-1.024 40.96 30.72 72.704 70.144 72.704z m174.08-117.76c25.6 0 46.08 20.992 46.08 46.08 0 25.6-20.48 46.08-46.08 46.08-25.088 0-46.08-20.992-46.08-46.08s20.992-46.08 46.08-46.08z m-174.08 0c25.6 0 46.08 20.992 46.08 46.08 0 25.6-20.48 46.08-46.08 46.08-25.088 0-46.08-20.992-46.08-46.08s20.48-46.08 46.08-46.08z"
    p-id="9181"></path>
</svg>
